<?xml version="1.0" standalone="no"?>
<!DOCTYPE svg PUBLIC "-//W3C//DTD SVG 20010904//EN"
 "http://www.w3.org/TR/2001/REC-SVG-20010904/DTD/svg10.dtd">
<svg version="1.0" xmlns="http://www.w3.org/2000/svg"
 width="96.000000pt" height="96.000000pt" viewBox="0 0 96.000000 96.000000"
 preserveAspectRatio="xMidYMid meet">

<g transform="translate(0.000000,96.000000) scale(0.100000,-0.100000)"
fill="#000000" stroke="none">
<path d="M0 480 l0 -480 480 0 480 0 0 480 0 480 -480 0 -480 0 0 -480z m547
243 c18 -8 30 -20 26 -26 -4 -6 0 -8 10 -4 10 4 16 2 14 -6 -1 -7 4 -11 10
-10 30 6 52 -87 36 -150 -7 -29 -40 -40 -65 -22 -13 8 -42 15 -65 15 -24 0
-43 5 -43 10 0 6 6 10 13 11 10 0 10 2 0 6 -24 9 -13 31 19 38 26 6 35 3 50
-15 13 -16 18 -18 18 -7 0 9 -4 19 -10 22 -5 3 -11 16 -11 28 -1 17 -2 18 -6
5 -2 -10 -9 -18 -14 -18 -6 0 -7 5 -3 11 3 6 -6 3 -21 -7 -19 -13 -29 -14 -34
-6 -6 10 -6 106 0 122 1 3 1 7 1 10 -1 12 44 8 75 -7z m-160 -28 c-10 -7 -14
-16 -8 -19 5 -4 12 -2 16 4 3 5 15 15 27 21 35 19 16 -7 -34 -45 -34 -25 -48
-31 -48 -21 0 9 10 19 22 24 15 5 18 10 9 15 -9 6 -8 13 5 27 9 11 20 16 23
13 3 -3 -2 -12 -12 -19z m16 -55 c-13 -5 -23 -16 -23 -24 0 -8 -4 -17 -9 -20
-13 -8 0 37 13 46 6 4 18 7 26 7 8 0 5 -4 -7 -9z m-73 -35 c0 -8 -4 -15 -10
-15 -5 0 -10 7 -10 15 0 8 5 15 10 15 6 0 10 -7 10 -15z m223 -152 c-7 -2 -19
-2 -25 0 -7 3 -2 5 12 5 14 0 19 -2 13 -5z m-423 -157 c0 -3 -4 -8 -10 -11 -5
-3 -10 -1 -10 4 0 6 5 11 10 11 6 0 10 -2 10 -4z m65 -6 c3 -5 -1 -10 -9 -10
-9 0 -16 5 -16 10 0 6 4 10 9 10 6 0 13 -4 16 -10z m45 0 c12 -7 10 -9 -8 -7
-12 0 -22 5 -22 9 0 11 12 10 30 -2z m50 0 c0 -5 -5 -10 -11 -10 -5 0 -7 5 -4
10 3 6 8 10 11 10 2 0 4 -4 4 -10z m125 0 c3 -5 -1 -10 -10 -10 -9 0 -13 5
-10 10 3 6 8 10 10 10 2 0 7 -4 10 -10z m80 0 c3 -5 1 -10 -4 -10 -6 0 -11 5
-11 10 0 6 2 10 4 10 3 0 8 -4 11 -10z m55 0 c0 -5 -4 -10 -9 -10 -6 0 -13 5
-16 10 -3 6 1 10 9 10 9 0 16 -4 16 -10z m40 0 c0 -5 -4 -10 -10 -10 -5 0 -10
5 -10 10 0 6 5 10 10 10 6 0 10 -4 10 -10z m50 2 c0 -5 -7 -9 -15 -9 -8 0 -12
4 -9 9 3 4 9 8 15 8 5 0 9 -4 9 -8z m60 -4 c0 -3 -9 -6 -20 -5 -11 1 -20 5
-20 9 0 3 9 6 20 5 11 -1 20 -5 20 -9z m100 0 c0 -4 -9 -8 -20 -8 -11 0 -20 4
-20 9 0 6 9 9 20 8 11 -1 20 -5 20 -9z"/>
<path d="M485 699 c-4 -6 -5 -12 -2 -15 2 -3 7 2 10 11 7 17 1 20 -8 4z"/>
<path d="M593 575 c0 -8 4 -12 9 -9 5 3 6 10 3 15 -9 13 -12 11 -12 -6z"/>
</g>
</svg>
